<svg xmlns="http://www.w3.org/2000/svg" xmlns:xlink="http://www.w3.org/1999/xlink" width="673" height="673" viewBox="0 0 673 673">
  <defs>
    <linearGradient id="linear-gradient" x1="0.5" x2="0.5" y2="1" gradientUnits="objectBoundingBox">
      <stop offset="0" stop-color="#fff"/>
      <stop offset="1" stop-color="#e1e1e1"/>
    </linearGradient>
  </defs>
  <g id="url" transform="translate(80 81)">
    <rect id="Rectángulo_1" data-name="Rectángulo 1" width="673" height="673" rx="200" transform="translate(-80 -81)" fill="url(#linear-gradient)"/>
    <path id="Trazado_3" data-name="Trazado 3" d="M154.232,259.935s-6.032-25.111-2.674-51.7c2.479-19.632,9.059-35.811,17.506-51.69,0,0-2.209,1.139-4.136,2.241a239.163,239.163,0,0,0-52.677,40.884L39.443,274.495c-53.364,54.841-52.463,143.675,2,197.407s142.688,52.826,196.051-2.016l84.726-87.072c53.364-54.841,52.463-143.675-2-197.407-16.108-15.892-32.537-25.765-52.777-32.116,0,0-8.952,8.954-28.868,29.667-16.243,16.893-17.494,33.053-17.494,33.053,10.678-.873,27.1,3.254,27.1,3.254,9.7,3.042,16.561,7.608,24.278,15.221a67.392,67.392,0,0,1,.959,94.558l-90.313,92.814a66.279,66.279,0,0,1-93.909.966,67.392,67.392,0,0,1-.959-94.558Z" fill="#00337a"/>
    <path id="Trazado_2" data-name="Trazado 2" fill="none" stroke="#000" stroke-linecap="round" stroke-linejoin="round" stroke-miterlimit="10" stroke-width="30"/>
    <path id="Trazado_1" data-name="Trazado 1" d="M356.415,253.463s5.962,24.147,3.4,50.826c-1.964,20.495-11.373,37.991-20.88,53.2,0,0,6.2-3.172,8.129-4.274a239.164,239.164,0,0,0,52.677-40.884l72.808-74.824c53.364-54.841,52.463-143.675-2-197.407S327.864-12.727,274.5,42.115l-84.726,87.072c-53.364,54.841-52.463,143.675,2,197.407,16.109,15.892,33.845,26.561,54.085,32.912,0,0,16.786-14.825,28.7-29.6,12.711-15.76,19-34.06,19-34.06-10.678.873-29.754-3.109-29.754-3.109-9.7-3.042-16.561-7.608-24.278-15.221a67.392,67.392,0,0,1-.959-94.558l90.313-92.814a66.279,66.279,0,0,1,93.909-.966,67.392,67.392,0,0,1,.959,94.558Z" fill="#1766a0"/>
    <g id="Grupo_1" data-name="Grupo 1">
      <path id="Trazado_4" data-name="Trazado 4" d="M191.785,326.586c16.108,15.892,33.845,26.561,54.085,32.912,0,0,16.786-14.825,28.7-29.6,12.711-15.76,19-34.06,19-34.06-10.678.873-29.754-3.109-29.754-3.109-9.7-3.042-16.561-7.608-24.278-15.221-.479-.472-.93-.961-1.391-1.444l-48.266,48.6c.628.643,1.257,1.288,1.9,1.922Z" fill="#145481"/>
      <path id="Trazado_5" data-name="Trazado 5" d="M472.563,237.5c53.043-54.512,52.462-142.6-1.034-196.428L423.275,89.658a67.388,67.388,0,0,1,.488,94.07l-67.34,69.728s5.962,24.147,3.4,50.826c-1.964,20.495-11.373,37.991-20.88,53.2,0,0,6.2-3.172,8.129-4.274a239.164,239.164,0,0,0,52.677-40.884Z" fill="#145481"/>
    </g>
    <path id="Trazado_6" data-name="Trazado 6" d="M324.207,189.411,275.9,238.056c22.674,25.962,21.976,65.86-2.422,90.934L183.162,421.8a66.272,66.272,0,0,1-92.252,2.518L42.629,472.937c54.548,52.619,141.922,51.361,194.919-3.1l84.726-87.072c52.043-53.485,52.465-139.294,1.933-193.35Z" fill="#002659"/>
  </g>
</svg>
