<svg xmlns="http://www.w3.org/2000/svg" xmlns:xlink="http://www.w3.org/1999/xlink" viewBox="0 0 926.39 218.49"><defs><style>.cls-1{isolation:isolate;}.cls-2,.cls-35,.cls-36,.cls-37,.cls-38,.cls-39,.cls-40,.cls-41,.cls-42,.cls-43,.cls-44,.cls-45,.cls-46,.cls-47,.cls-48,.cls-49,.cls-50,.cls-51,.cls-52,.cls-53,.cls-54,.cls-55,.cls-56,.cls-57,.cls-58,.cls-59,.cls-60,.cls-61,.cls-62,.cls-63,.cls-64,.cls-65,.cls-66{mix-blend-mode:multiply;}.cls-3,.cls-35{fill:#fff;opacity:0;}.cls-36,.cls-4{fill:#f9f8f8;opacity:0.03;}.cls-37,.cls-5{fill:#f2f2f2;opacity:0.06;}.cls-38,.cls-6{fill:#ecebeb;opacity:0.1;}.cls-39,.cls-7{fill:#e5e5e4;opacity:0.13;}.cls-40,.cls-8{fill:#dfdedd;opacity:0.16;}.cls-41,.cls-9{fill:#d8d8d7;opacity:0.19;}.cls-10,.cls-42{fill:#d2d1d0;opacity:0.23;}.cls-11,.cls-43{fill:#cbcbc9;opacity:0.26;}.cls-12,.cls-44{fill:#c5c4c2;opacity:0.29;}.cls-13,.cls-45{fill:#bebebc;opacity:0.32;}.cls-14,.cls-46{fill:#b8b7b5;opacity:0.35;}.cls-15,.cls-47{fill:#b1b0ae;opacity:0.39;}.cls-16,.cls-48{fill:#abaaa7;opacity:0.42;}.cls-17,.cls-49{fill:#a4a3a1;opacity:0.45;}.cls-18,.cls-50{fill:#9e9d9a;opacity:0.48;}.cls-19,.cls-51{fill:#979693;opacity:0.52;}.cls-20,.cls-52{fill:#91908c;opacity:0.55;}.cls-21,.cls-53{fill:#8a8986;opacity:0.58;}.cls-22,.cls-54{fill:#84837f;opacity:0.61;}.cls-23,.cls-55{fill:#7d7c78;opacity:0.65;}.cls-24,.cls-56{fill:#777571;opacity:0.68;}.cls-25,.cls-57{fill:#706f6b;opacity:0.71;}.cls-26,.cls-58{fill:#6a6864;opacity:0.74;}.cls-27,.cls-59{fill:#63625d;opacity:0.77;}.cls-28,.cls-60{fill:#5d5b56;opacity:0.81;}.cls-29,.cls-61{fill:#565550;opacity:0.84;}.cls-30,.cls-62{fill:#504e49;opacity:0.87;}.cls-31,.cls-63{fill:#494842;opacity:0.9;}.cls-32,.cls-64{fill:#43413b;opacity:0.94;}.cls-33,.cls-65{fill:#3c3b35;opacity:0.97;}.cls-34,.cls-66{fill:#36342e;}.cls-67{fill:#f7f3e4;}.cls-68{fill:url(#linear-gradient);}.cls-69{fill:url(#linear-gradient-2);}.cls-70{fill:url(#linear-gradient-3);}.cls-71{fill:url(#linear-gradient-4);}.cls-72{fill:#2d8fe0;}</style><linearGradient id="linear-gradient" x1="212.64" y1="508.67" x2="212.94" y2="488.7" gradientTransform="translate(247.26 -74.9) rotate(27.66)" gradientUnits="userSpaceOnUse"><stop offset="0" stop-color="#e7e5d5"/><stop offset="0.2" stop-color="#e1dfd0"/><stop offset="0.47" stop-color="#d1cfc1"/><stop offset="0.5" stop-color="#cfcdbf"/><stop offset="0.84" stop-color="#bdbbaf"/><stop offset="1" stop-color="#b3b1a5"/></linearGradient><linearGradient id="linear-gradient-2" x1="191.95" y1="476.66" x2="236.71" y2="476.19" gradientTransform="translate(247.26 -74.9) rotate(27.66)" gradientUnits="userSpaceOnUse"><stop offset="0" stop-color="#e6e2d3"/><stop offset="0.21" stop-color="#e0dcce"/><stop offset="0.43" stop-color="#d4d0c2"/><stop offset="0.6" stop-color="#cbc8bb"/><stop offset="1" stop-color="#bab7ad"/></linearGradient><linearGradient id="linear-gradient-3" x1="181.63" y1="457.6" x2="251.11" y2="456.87" xlink:href="#linear-gradient-2"/><linearGradient id="linear-gradient-4" x1="166.88" y1="438.97" x2="263.73" y2="437.9" xlink:href="#linear-gradient-2"/></defs><title>LINKEDU</title><g class="cls-1"><g id="Layer_2" data-name="Layer 2"><g class="cls-2"><path class="cls-3" d="M196,480.24a14.06,14.06,0,0,1-6-18.93c3.64-6.85,11.71-12,20-8.06s9.66,14.63,6,21.48S202.79,483.73,196,480.24Z" transform="translate(-46.74 -391.73)"/><path class="cls-4" d="M196.11,480.07a13.93,13.93,0,0,1-6-18.75c3.61-6.78,11.62-11.82,19.78-7.92s9.58,14.43,6,21.22S202.82,483.54,196.11,480.07Z" transform="translate(-46.74 -391.73)"/><path class="cls-5" d="M196.19,479.9a13.78,13.78,0,0,1-5.9-18.56c3.57-6.72,11.51-11.65,19.57-7.79s9.5,14.24,5.92,20.95S202.84,483.34,196.19,479.9Z" transform="translate(-46.74 -391.73)"/><path class="cls-6" d="M196.27,479.74a13.66,13.66,0,0,1-5.85-18.39c3.53-6.64,11.41-11.46,19.36-7.65s9.42,14,5.88,20.69S202.87,483.14,196.27,479.74Z" transform="translate(-46.74 -391.73)"/><path class="cls-7" d="M196.35,479.57a13.52,13.52,0,0,1-5.81-18.2c3.5-6.58,11.32-11.29,19.17-7.52s9.33,13.85,5.83,20.42S202.89,483,196.35,479.57Z" transform="translate(-46.74 -391.73)"/><path class="cls-8" d="M196.43,479.4a13.38,13.38,0,0,1-5.76-18c3.46-6.51,11.21-11.11,19-7.37s9.25,13.64,5.78,20.15S202.91,482.75,196.43,479.4Z" transform="translate(-46.74 -391.73)"/><path class="cls-9" d="M196.51,479.24a13.25,13.25,0,0,1-5.72-17.84c3.43-6.44,11.12-10.93,18.76-7.24s9.17,13.45,5.74,19.89S202.94,482.56,196.51,479.24Z" transform="translate(-46.74 -391.73)"/><path class="cls-10" d="M196.59,479.07a13.12,13.12,0,0,1-5.67-17.66c3.39-6.37,11-10.75,18.56-7.1s9.08,13.25,5.69,19.62S203,482.36,196.59,479.07Z" transform="translate(-46.74 -391.73)"/><path class="cls-11" d="M196.67,478.9A13,13,0,0,1,191,461.43c3.36-6.31,10.92-10.58,18.36-7s9,13.05,5.64,19.36S203,482.17,196.67,478.9Z" transform="translate(-46.74 -391.73)"/><path class="cls-12" d="M196.75,478.73a12.83,12.83,0,0,1-5.58-17.29c3.32-6.24,10.82-10.39,18.15-6.83s8.92,12.86,5.6,19.1S203,482,196.75,478.73Z" transform="translate(-46.74 -391.73)"/><path class="cls-13" d="M196.83,478.57a12.71,12.71,0,0,1-5.54-17.11c3.29-6.17,10.73-10.22,18-6.7s8.83,12.66,5.55,18.83S203,481.77,196.83,478.57Z" transform="translate(-46.74 -391.73)"/><path class="cls-14" d="M196.91,478.4a12.56,12.56,0,0,1-5.49-16.93c3.25-6.1,10.63-10,17.75-6.56s8.75,12.47,5.5,18.57S203.06,481.58,196.91,478.4Z" transform="translate(-46.74 -391.73)"/><path class="cls-15" d="M197,478.23a12.43,12.43,0,0,1-5.44-16.74c3.21-6,10.52-9.86,17.54-6.43s8.67,12.27,5.46,18.3S203.09,481.38,197,478.23Z" transform="translate(-46.74 -391.73)"/><path class="cls-16" d="M197.07,478.07a12.31,12.31,0,0,1-5.4-16.57c3.18-6,10.43-9.68,17.35-6.29s8.58,12.08,5.41,18S203.11,481.19,197.07,478.07Z" transform="translate(-46.74 -391.73)"/><path class="cls-17" d="M197.15,477.9a12.16,12.16,0,0,1-5.35-16.38c3.13-5.9,10.33-9.5,17.14-6.16s8.5,11.88,5.36,17.78S203.14,481,197.15,477.9Z" transform="translate(-46.74 -391.73)"/><path class="cls-18" d="M197.23,477.73a12,12,0,0,1-5.31-16.2c3.1-5.83,10.23-9.32,16.94-6s8.42,11.69,5.32,17.51S203.16,480.79,197.23,477.73Z" transform="translate(-46.74 -391.73)"/><path class="cls-19" d="M197.31,477.56a11.88,11.88,0,0,1-5.26-16c3.06-5.75,10.13-9.14,16.73-5.88s8.34,11.49,5.28,17.25S203.18,480.6,197.31,477.56Z" transform="translate(-46.74 -391.73)"/><path class="cls-20" d="M197.39,477.4a11.77,11.77,0,0,1-5.22-15.84c3-5.69,10-9,16.54-5.75s8.25,11.3,5.22,17S203.21,480.4,197.39,477.4Z" transform="translate(-46.74 -391.73)"/><path class="cls-21" d="M197.47,477.23a11.62,11.62,0,0,1-5.17-15.66c3-5.62,9.93-8.78,16.33-5.61s8.17,11.1,5.18,16.72S203.23,480.21,197.47,477.23Z" transform="translate(-46.74 -391.73)"/><path class="cls-22" d="M197.55,477.06a11.48,11.48,0,0,1-5.12-15.47c2.95-5.55,9.83-8.61,16.12-5.48s8.09,10.9,5.14,16.46S203.26,480,197.55,477.06Z" transform="translate(-46.74 -391.73)"/><path class="cls-23" d="M197.63,476.89a11.34,11.34,0,0,1-5.08-15.29,11.83,11.83,0,1,1,21,10.85C210.64,477.94,203.28,479.81,197.63,476.89Z" transform="translate(-46.74 -391.73)"/><path class="cls-24" d="M197.71,476.73a11.21,11.21,0,0,1-5-15.11,11.68,11.68,0,1,1,20.76,10.72C210.56,477.76,203.31,479.62,197.71,476.73Z" transform="translate(-46.74 -391.73)"/><path class="cls-25" d="M197.79,476.56a11.08,11.08,0,0,1-5-14.93,11.55,11.55,0,1,1,20.52,10.6C210.47,477.57,203.33,479.42,197.79,476.56Z" transform="translate(-46.74 -391.73)"/><path class="cls-26" d="M197.87,476.39a10.93,10.93,0,0,1-4.94-14.74,11.4,11.4,0,1,1,20.26,10.46C210.38,477.39,203.36,479.23,197.87,476.39Z" transform="translate(-46.74 -391.73)"/><path class="cls-27" d="M198,476.23a10.81,10.81,0,0,1-4.9-14.57,11.27,11.27,0,0,1,20,10.34C210.29,477.21,203.38,479,198,476.23Z" transform="translate(-46.74 -391.73)"/><path class="cls-28" d="M198,476.06a10.67,10.67,0,0,1-4.85-14.38A11.15,11.15,0,0,1,208.09,457a11,11,0,0,1,4.85,14.87C210.21,477,203.41,478.84,198,476.06Z" transform="translate(-46.74 -391.73)"/><path class="cls-29" d="M198.11,475.89a10.54,10.54,0,0,1-4.8-14.2,11,11,0,0,1,14.7-4.53,10.83,10.83,0,0,1,4.81,14.61C210.12,476.85,203.43,478.64,198.11,475.89Z" transform="translate(-46.74 -391.73)"/><path class="cls-30" d="M198.19,475.72a10.4,10.4,0,0,1-4.76-14,10.82,10.82,0,0,1,14.51-4.4,10.65,10.65,0,0,1,4.76,14.35C210,476.66,203.46,478.44,198.19,475.72Z" transform="translate(-46.74 -391.73)"/><path class="cls-31" d="M198.27,475.56a10.27,10.27,0,0,1-4.71-13.84,10.66,10.66,0,0,1,14.3-4.26,10.44,10.44,0,0,1,4.71,14.08C210,476.48,203.48,478.25,198.27,475.56Z" transform="translate(-46.74 -391.73)"/><path class="cls-32" d="M198.35,475.39a10.13,10.13,0,0,1-4.67-13.65,10.49,10.49,0,0,1,14.1-4.13,10.25,10.25,0,0,1,4.67,13.82C209.86,476.3,203.5,478.05,198.35,475.39Z" transform="translate(-46.74 -391.73)"/><path class="cls-33" d="M198.43,475.22a10,10,0,0,1-4.62-13.47,10.33,10.33,0,0,1,13.9-4,10.07,10.07,0,0,1,4.62,13.56C209.77,476.12,203.53,477.86,198.43,475.22Z" transform="translate(-46.74 -391.73)"/><ellipse class="cls-34" cx="203.07" cy="466.48" rx="9.7" ry="10.29" transform="translate(-352.14 92.14) rotate(-68.43)"/></g><g class="cls-2"><path class="cls-3" d="M219.65,462.41a1.54,1.54,0,0,1-.92-1c-.59-4.19-1.06-9.89-4.75-11.86-5.17-2.76-10-.19-13.39.57a2,2,0,0,1-1.35-.17,2,2,0,0,1-1-1.18c-.34-1.17-4.12-9.56-4.44-10.66a1.9,1.9,0,0,1,.18-1.51,2,2,0,0,1,1.25-.92c6.6-1.61,17.31-1,24.74,2.87,6,3.08,10.54,9.33,13.69,17.51a1.94,1.94,0,0,1-1.22,2.54c-1.16.39-2.85,1.35-4.57,1.79s-5.59,1.77-6.7,2.14A2,2,0,0,1,219.65,462.41Z" transform="translate(-46.74 -391.73)"/><path class="cls-4" d="M194.18,436.62a2,2,0,0,1,.3-.39,2.08,2.08,0,0,1,.94-.52c6.58-1.6,17.13-.95,24.55,2.88,5.94,3.07,10.49,9.26,13.63,17.4a2,2,0,0,1,0,1.52,1.93,1.93,0,0,1-.38.55,1.81,1.81,0,0,1-.34.28,2,2,0,0,1-.4.18c-1.16.39-2.84,1.33-4.55,1.77l-.85.23c-1.9.56-4.86,1.58-5.81,1.89a1.8,1.8,0,0,1-.45.09h0a1.79,1.79,0,0,1-.4,0,2.29,2.29,0,0,1-.67-.22,1.57,1.57,0,0,1-.91-1c-.6-4-1.12-9.37-4.44-11.51-.12-.08-.25-.15-.38-.22-.33-.18-.65-.33-1-.47-4.73-2-9.11.23-12.32.94a2,2,0,0,1-1.35-.17,2,2,0,0,1-.57-.41,1.72,1.72,0,0,1-.23-.32,1.57,1.57,0,0,1-.18-.42c-.2-.67-1.45-3.59-2.57-6.21-.86-2-1.64-3.87-1.78-4.37a1.93,1.93,0,0,1,0-1A1.79,1.79,0,0,1,194.18,436.62Z" transform="translate(-46.74 -391.73)"/><path class="cls-5" d="M194.36,436.63a1.57,1.57,0,0,1,.3-.38,2,2,0,0,1,.93-.51c6.56-1.59,17-.93,24.36,2.89,5.92,3.06,10.44,9.19,13.57,17.29a2,2,0,0,1,0,1.51,1.87,1.87,0,0,1-.36.55,2.22,2.22,0,0,1-.33.28,1.84,1.84,0,0,1-.4.19c-1.15.38-2.82,1.3-4.53,1.74l-.84.23c-1.89.55-4.82,1.56-5.78,1.87a1.64,1.64,0,0,1-.44.09h0a1.7,1.7,0,0,1-.39,0,2.16,2.16,0,0,1-.66-.23,1.59,1.59,0,0,1-.89-1c-.65-4-1.22-9.26-4.52-11.38l-.38-.23c-.33-.17-.65-.33-1-.46-4.68-1.95-9,.14-12.25.83a2.13,2.13,0,0,1-1.34-.15,2.28,2.28,0,0,1-.56-.4,1.18,1.18,0,0,1-.24-.31,1.92,1.92,0,0,1-.19-.41c-.2-.69-1.42-3.58-2.51-6.17-.84-2-1.59-3.83-1.74-4.34a2,2,0,0,1,0-1A1.63,1.63,0,0,1,194.36,436.63Z" transform="translate(-46.74 -391.73)"/><path class="cls-6" d="M194.53,436.65a1.91,1.91,0,0,1,.31-.38,2,2,0,0,1,.92-.49c6.55-1.58,16.79-.92,24.16,2.89,5.9,3.05,10.4,9.12,13.52,17.18a2,2,0,0,1,0,1.5,2.2,2.2,0,0,1-.34.55,1.74,1.74,0,0,1-.32.28,1.64,1.64,0,0,1-.4.19c-1.14.38-2.8,1.28-4.5,1.71l-.83.24c-1.89.55-4.79,1.54-5.75,1.86a2.36,2.36,0,0,1-.45.08h0a1.67,1.67,0,0,1-.38,0,2.05,2.05,0,0,1-.65-.24,1.64,1.64,0,0,1-.87-1c-.67-4-1.31-9.14-4.59-11.25-.12-.08-.25-.15-.38-.22a9.27,9.27,0,0,0-1-.46c-4.64-1.95-9,.05-12.17.72a2.13,2.13,0,0,1-1.34-.14,2.21,2.21,0,0,1-.56-.38,1.42,1.42,0,0,1-.25-.3,1.81,1.81,0,0,1-.18-.4c-.2-.71-1.39-3.57-2.46-6.13-.82-2-1.55-3.78-1.69-4.31a2,2,0,0,1,0-1A1.72,1.72,0,0,1,194.53,436.65Z" transform="translate(-46.74 -391.73)"/><path class="cls-7" d="M194.71,436.66a1.56,1.56,0,0,1,.31-.37,2,2,0,0,1,.92-.48c6.52-1.57,16.61-.89,24,2.91,5.87,3,10.34,9,13.47,17a2.07,2.07,0,0,1,0,1.49,2,2,0,0,1-.32.55,1.42,1.42,0,0,1-.31.29,1.76,1.76,0,0,1-.39.19c-1.14.38-2.79,1.26-4.48,1.69l-.83.23c-1.88.55-4.74,1.53-5.72,1.85a1.63,1.63,0,0,1-.44.08h0a1.69,1.69,0,0,1-.38,0,2.24,2.24,0,0,1-.63-.25,1.68,1.68,0,0,1-.86-1c-.7-4-1.4-9-4.66-11.12l-.38-.23c-.32-.17-.64-.32-1-.46-4.58-1.93-8.87,0-12.09.63a2.28,2.28,0,0,1-1.32-.13,2.08,2.08,0,0,1-.57-.37,1.41,1.41,0,0,1-.25-.29,1.62,1.62,0,0,1-.18-.4c-.21-.71-1.37-3.55-2.41-6.08-.8-2-1.5-3.73-1.65-4.28a1.93,1.93,0,0,1,0-1A1.68,1.68,0,0,1,194.71,436.66Z" transform="translate(-46.74 -391.73)"/><path class="cls-8" d="M194.89,436.68a1.52,1.52,0,0,1,.3-.37,2.3,2.3,0,0,1,.92-.47,37.67,37.67,0,0,1,23.77,2.92c5.84,3,10.29,9,13.41,16.94a2.15,2.15,0,0,1,0,1.48,2.22,2.22,0,0,1-.3.55,1.64,1.64,0,0,1-.3.29,1.41,1.41,0,0,1-.39.19c-1.13.38-2.78,1.24-4.45,1.67l-.83.23c-1.88.54-4.7,1.51-5.68,1.83a1.7,1.7,0,0,1-.44.08h0a1.57,1.57,0,0,1-.37,0,2.21,2.21,0,0,1-.62-.26,1.7,1.7,0,0,1-.84-1c-.74-4-1.5-8.92-4.74-11l-.38-.22c-.32-.17-.64-.32-.95-.46-4.53-1.92-8.79-.13-12,.52a2.28,2.28,0,0,1-1.32-.12,2.18,2.18,0,0,1-.57-.35,1.35,1.35,0,0,1-.25-.28,1.38,1.38,0,0,1-.18-.39c-.22-.73-1.34-3.54-2.36-6-.78-1.94-1.46-3.69-1.61-4.25a2.12,2.12,0,0,1,0-1A1.49,1.49,0,0,1,194.89,436.68Z" transform="translate(-46.74 -391.73)"/><path class="cls-9" d="M195.07,436.7a1.31,1.31,0,0,1,.3-.36,2.12,2.12,0,0,1,.91-.46,37.18,37.18,0,0,1,23.58,2.92c5.82,3,10.24,8.91,13.35,16.83a2.13,2.13,0,0,1,0,1.47,2,2,0,0,1-.27.55,1.33,1.33,0,0,1-.29.29,1.72,1.72,0,0,1-.38.2c-1.13.37-2.77,1.21-4.44,1.64l-.82.23c-1.87.54-4.66,1.49-5.65,1.82a1.59,1.59,0,0,1-.43.06h0a1,1,0,0,1-.37-.05,2.3,2.3,0,0,1-.6-.27,1.72,1.72,0,0,1-.83-1c-.78-3.95-1.59-8.81-4.82-10.87a2.77,2.77,0,0,0-.37-.22A9,9,0,0,0,213,449c-4.48-1.91-8.71-.22-11.94.41a2.34,2.34,0,0,1-1.31-.11,2.3,2.3,0,0,1-.57-.33,1.29,1.29,0,0,1-.25-.27,1.57,1.57,0,0,1-.19-.39c-.21-.74-1.31-3.52-2.29-6-.77-1.91-1.42-3.64-1.58-4.21a2.27,2.27,0,0,1,0-1A1.47,1.47,0,0,1,195.07,436.7Z" transform="translate(-46.74 -391.73)"/><path class="cls-10" d="M195.24,436.71a1.47,1.47,0,0,1,.31-.35,2.18,2.18,0,0,1,.9-.45,36.85,36.85,0,0,1,23.38,2.93c5.8,3,10.2,8.84,13.3,16.72a2.16,2.16,0,0,1,.06,1.46,2.14,2.14,0,0,1-.26.55,1.45,1.45,0,0,1-.27.29,1.25,1.25,0,0,1-.38.2c-1.11.37-2.75,1.2-4.41,1.62l-.82.23c-1.86.53-4.62,1.47-5.61,1.8a1.28,1.28,0,0,1-.43.06h0a1.42,1.42,0,0,1-.36,0,2.16,2.16,0,0,1-.59-.29,1.81,1.81,0,0,1-.82-1c-.81-3.93-1.68-8.71-4.89-10.75l-.37-.22A10,10,0,0,0,213,449c-4.42-1.9-8.63-.32-11.85.31a2.53,2.53,0,0,1-1.31-.1,2.32,2.32,0,0,1-.56-.31,1.33,1.33,0,0,1-.26-.27,1.23,1.23,0,0,1-.19-.38c-.22-.76-1.28-3.51-2.24-5.95-.75-1.89-1.38-3.59-1.53-4.18a2.22,2.22,0,0,1,0-1A1.43,1.43,0,0,1,195.24,436.71Z" transform="translate(-46.74 -391.73)"/><path class="cls-11" d="M195.42,436.73a1.27,1.27,0,0,1,.3-.35,2.37,2.37,0,0,1,.9-.44,36.37,36.37,0,0,1,23.19,2.95c5.77,3,10.15,8.76,13.24,16.6a2.26,2.26,0,0,1,.08,1.45,1.89,1.89,0,0,1-.24.54,1,1,0,0,1-.26.3,1.33,1.33,0,0,1-.37.2c-1.11.37-2.74,1.18-4.39,1.6l-.81.22c-1.86.53-4.59,1.46-5.59,1.79a1,1,0,0,1-.43.06h0a1.07,1.07,0,0,1-.35-.06,2.59,2.59,0,0,1-.57-.3,1.91,1.91,0,0,1-.81-1c-.84-3.92-1.77-8.6-5-10.63l-.37-.21c-.31-.17-.62-.32-.93-.46-4.37-1.88-8.55-.41-11.78.21a2.39,2.39,0,0,1-1.86-.38,1.24,1.24,0,0,1-.26-.25,1.41,1.41,0,0,1-.19-.39c-.23-.77-1.26-3.49-2.19-5.89-.73-1.88-1.33-3.55-1.49-4.16a2.18,2.18,0,0,1-.05-1A1.17,1.17,0,0,1,195.42,436.73Z" transform="translate(-46.74 -391.73)"/><path class="cls-12" d="M195.6,436.75a1.14,1.14,0,0,1,.3-.35,2.36,2.36,0,0,1,.89-.42,35.94,35.94,0,0,1,23,2.95c5.74,3,10.1,8.7,13.18,16.49a2.3,2.3,0,0,1,.1,1.44,2,2,0,0,1-.22.54,1.18,1.18,0,0,1-.25.3,1,1,0,0,1-.37.2c-1.1.37-2.72,1.16-4.37,1.58l-.8.22c-1.85.53-4.55,1.44-5.55,1.77a1.07,1.07,0,0,1-.43.06h0a1.09,1.09,0,0,1-.35-.07,2.5,2.5,0,0,1-.55-.31,1.91,1.91,0,0,1-.79-1c-.88-3.91-1.87-8.49-5-10.5l-.37-.22c-.31-.16-.62-.32-.92-.45-4.32-1.88-8.47-.5-11.7.11a2.66,2.66,0,0,1-1.29-.08,2.52,2.52,0,0,1-.57-.28,1.2,1.2,0,0,1-.26-.24,1.35,1.35,0,0,1-.19-.38c-.23-.79-1.23-3.48-2.14-5.85-.71-1.85-1.29-3.51-1.45-4.13a2.68,2.68,0,0,1-.06-1A1.25,1.25,0,0,1,195.6,436.75Z" transform="translate(-46.74 -391.73)"/><path class="cls-13" d="M195.78,436.76a1.08,1.08,0,0,1,.3-.34A2.38,2.38,0,0,1,197,436a35.6,35.6,0,0,1,22.81,3c5.72,2.95,10,8.63,13.12,16.38a2.33,2.33,0,0,1,.12,1.42,2,2,0,0,1-.2.55,1.13,1.13,0,0,1-.24.3,1,1,0,0,1-.37.2c-1.09.37-2.7,1.14-4.34,1.56-.24.06-.51.13-.8.22-1.84.52-4.5,1.42-5.52,1.76a1.21,1.21,0,0,1-.42.05h0a.84.84,0,0,1-.34-.08,2.81,2.81,0,0,1-.55-.32,2,2,0,0,1-.77-1c-.92-3.88-2-8.37-5.11-10.37l-.37-.21a9.74,9.74,0,0,0-.92-.45c-4.26-1.87-8.38-.6-11.62,0a2.76,2.76,0,0,1-1.28-.07,3,3,0,0,1-.57-.26,1,1,0,0,1-.26-.23,1.25,1.25,0,0,1-.2-.38c-.23-.8-1.2-3.46-2.08-5.8-.69-1.83-1.24-3.46-1.41-4.1a2.61,2.61,0,0,1-.06-1A1.25,1.25,0,0,1,195.78,436.76Z" transform="translate(-46.74 -391.73)"/><path class="cls-14" d="M196,436.78a1.06,1.06,0,0,1,.3-.33,2.5,2.5,0,0,1,.89-.41,35.12,35.12,0,0,1,22.6,3c5.7,2.94,10,8.56,13.08,16.27a2.54,2.54,0,0,1,.13,1.41,2.37,2.37,0,0,1-.18.55.93.93,0,0,1-.23.3,1.17,1.17,0,0,1-.36.21c-1.09.36-2.69,1.11-4.32,1.53l-.8.21c-1.84.52-4.46,1.41-5.48,1.75a1.21,1.21,0,0,1-.42.05h0a1.07,1.07,0,0,1-.34-.09,2.73,2.73,0,0,1-.53-.33,2.08,2.08,0,0,1-.76-1c-.95-3.87-2.05-8.26-5.19-10.24-.11-.08-.24-.15-.36-.22-.3-.16-.61-.31-.91-.44-4.21-1.86-8.31-.69-11.54-.11a2.75,2.75,0,0,1-1.28-.06,2.64,2.64,0,0,1-.57-.24.92.92,0,0,1-.26-.22,1,1,0,0,1-.2-.37c-.24-.82-1.17-3.45-2-5.76-.67-1.81-1.2-3.41-1.36-4.07a2.56,2.56,0,0,1-.07-.95A1.09,1.09,0,0,1,196,436.78Z" transform="translate(-46.74 -391.73)"/><path class="cls-15" d="M196.13,436.8a1,1,0,0,1,.3-.33,2.42,2.42,0,0,1,.88-.39,34.63,34.63,0,0,1,22.41,3c5.67,2.92,9.95,8.48,13,16.15a2.6,2.6,0,0,1,.15,1.4,2.13,2.13,0,0,1-.16.54.93.93,0,0,1-.22.31,1.07,1.07,0,0,1-.36.21c-1.08.36-2.67,1.09-4.29,1.51l-.8.21c-1.83.52-4.42,1.39-5.45,1.73a1,1,0,0,1-.42.05h0a.89.89,0,0,1-.33-.1,2.66,2.66,0,0,1-.51-.34,2.15,2.15,0,0,1-.74-1c-1-3.86-2.15-8.15-5.27-10.12l-.36-.21-.9-.45c-4.16-1.84-8.23-.77-11.47-.2a3.18,3.18,0,0,1-1.27-.05,3.13,3.13,0,0,1-.56-.23.82.82,0,0,1-.27-.21,1,1,0,0,1-.2-.37c-.24-.83-1.15-3.43-2-5.71-.65-1.78-1.15-3.37-1.32-4a2.74,2.74,0,0,1-.07-.94A.91.91,0,0,1,196.13,436.8Z" transform="translate(-46.74 -391.73)"/><path class="cls-16" d="M196.31,436.81a.92.92,0,0,1,.3-.32,2.84,2.84,0,0,1,.87-.38,34.28,34.28,0,0,1,22.22,3c5.64,2.91,9.9,8.42,13,16a2.73,2.73,0,0,1,.17,1.4,3.05,3.05,0,0,1-.14.54,1.06,1.06,0,0,1-.21.31.84.84,0,0,1-.35.21c-1.08.36-2.66,1.07-4.28,1.49l-.78.21c-1.83.51-4.39,1.37-5.42,1.71a1,1,0,0,1-.42.05h0a.82.82,0,0,1-.32-.11,3.23,3.23,0,0,1-.5-.35,2.25,2.25,0,0,1-.73-1c-1-3.84-2.24-8-5.34-10l-.36-.21c-.3-.17-.6-.32-.89-.45-4.11-1.83-8.15-.87-11.4-.31a3.08,3.08,0,0,1-1.25,0,3.79,3.79,0,0,1-.57-.2.82.82,0,0,1-.27-.21.91.91,0,0,1-.2-.36c-.25-.85-1.12-3.42-1.93-5.67-.63-1.76-1.11-3.32-1.28-4a3.29,3.29,0,0,1-.08-.93A.93.93,0,0,1,196.31,436.81Z" transform="translate(-46.74 -391.73)"/><path class="cls-17" d="M196.48,436.83a1,1,0,0,1,.31-.32,2.91,2.91,0,0,1,.86-.37,33.93,33.93,0,0,1,22,3c5.62,2.9,9.85,8.35,12.9,15.92a2.94,2.94,0,0,1,.19,1.39,3,3,0,0,1-.12.54.87.87,0,0,1-.2.31.84.84,0,0,1-.35.21c-1.07.36-2.65,1.05-4.25,1.47l-.78.21c-1.82.5-4.35,1.35-5.39,1.7a1,1,0,0,1-.41,0h0a.68.68,0,0,1-.32-.11,3.16,3.16,0,0,1-.48-.36,2.36,2.36,0,0,1-.72-1c-1.06-3.83-2.32-7.93-5.41-9.87l-.36-.21c-.29-.16-.59-.31-.89-.44-4.05-1.82-8.06-1-11.31-.42a3.49,3.49,0,0,1-1.25,0,3.81,3.81,0,0,1-.57-.19.79.79,0,0,1-.27-.2,1,1,0,0,1-.21-.35c-.25-.86-1.09-3.41-1.87-5.63-.61-1.74-1.06-3.27-1.23-4a2.91,2.91,0,0,1-.09-.92C196.3,437.06,196.41,437,196.48,436.83Z" transform="translate(-46.74 -391.73)"/><path class="cls-18" d="M196.66,436.85a.89.89,0,0,1,.3-.31,2.62,2.62,0,0,1,.86-.36,33.42,33.42,0,0,1,21.83,3c5.6,2.89,9.81,8.28,12.85,15.81a3,3,0,0,1,.21,1.37,4.16,4.16,0,0,1-.1.55,1,1,0,0,1-.19.32,1,1,0,0,1-.35.21c-1.06.35-2.63,1-4.22,1.43l-.78.21c-1.81.51-4.31,1.34-5.35,1.69a1,1,0,0,1-.41,0h0a.72.72,0,0,1-.31-.11,4.12,4.12,0,0,1-.47-.38,2.58,2.58,0,0,1-.71-1c-1.09-3.81-2.41-7.82-5.49-9.74a2.5,2.5,0,0,0-.35-.21c-.29-.16-.59-.31-.88-.45-4-1.81-8-1-11.24-.51a3.68,3.68,0,0,1-1.24,0,4.25,4.25,0,0,1-.57-.17.66.66,0,0,1-.27-.19.78.78,0,0,1-.21-.35c-.25-.87-1.06-3.39-1.82-5.58-.58-1.71-1-3.22-1.19-3.95a2.79,2.79,0,0,1-.09-.9C196.47,437.08,196.59,437,196.66,436.85Z" transform="translate(-46.74 -391.73)"/><path class="cls-19" d="M196.84,436.86a.79.79,0,0,1,.3-.3,2.77,2.77,0,0,1,.85-.35,33.08,33.08,0,0,1,21.64,3c5.57,2.87,9.76,8.2,12.79,15.69a3.12,3.12,0,0,1,.23,1.36,2.26,2.26,0,0,1-.09.54.6.6,0,0,1-.18.33.85.85,0,0,1-.33.21c-1.06.35-2.62,1-4.21,1.41l-.77.21c-1.81.5-4.26,1.32-5.32,1.67a.69.69,0,0,1-.4,0h0a.63.63,0,0,1-.31-.12,5.3,5.3,0,0,1-.46-.39,2.58,2.58,0,0,1-.68-1c-1.14-3.8-2.51-7.71-5.57-9.62l-.35-.21c-.29-.16-.58-.3-.87-.44-4-1.8-7.91-1.14-11.16-.62a3.68,3.68,0,0,1-1.24,0,3.4,3.4,0,0,1-.57-.15.68.68,0,0,1-.28-.18.83.83,0,0,1-.2-.34c-.26-.89-1-3.38-1.76-5.54-.57-1.69-1-3.18-1.16-3.91a3.53,3.53,0,0,1-.09-.9C196.65,437.09,196.76,437,196.84,436.86Z" transform="translate(-46.74 -391.73)"/><path class="cls-20" d="M197,436.88a.72.72,0,0,1,.3-.3,2.89,2.89,0,0,1,.85-.33,32.58,32.58,0,0,1,21.44,3c5.54,2.86,9.71,8.14,12.73,15.58a3.4,3.4,0,0,1,.25,1.35,3.06,3.06,0,0,1-.07.54.7.7,0,0,1-.17.33.75.75,0,0,1-.33.21c-1.05.35-2.6,1-4.18,1.39l-.77.21c-1.8.49-4.22,1.3-5.29,1.65a.69.69,0,0,1-.4,0h0a.7.7,0,0,1-.3-.13,5.31,5.31,0,0,1-.44-.4,2.79,2.79,0,0,1-.67-1c-1.17-3.79-2.6-7.61-5.64-9.49a4.05,4.05,0,0,0-.35-.21c-.29-.16-.58-.31-.87-.44-3.89-1.79-7.82-1.23-11.08-.73a3.91,3.91,0,0,1-1.23,0c-.2,0-.39-.09-.56-.14a.64.64,0,0,1-.29-.17.83.83,0,0,1-.2-.34c-.27-.9-1-3.36-1.71-5.49-.55-1.67-.94-3.13-1.12-3.88a4,4,0,0,1-.1-.89C196.82,437.1,196.94,437,197,436.88Z" transform="translate(-46.74 -391.73)"/><path class="cls-21" d="M197.19,436.9a.86.86,0,0,1,.3-.3,3.32,3.32,0,0,1,.85-.32,32.2,32.2,0,0,1,21.24,3c5.53,2.85,9.66,8.07,12.69,15.47a3.75,3.75,0,0,1,.26,1.34,3.1,3.1,0,0,1-.05.54.68.68,0,0,1-.16.33.72.72,0,0,1-.32.21c-1.05.35-2.59,1-4.16,1.37l-.76.21c-1.8.49-4.19,1.28-5.26,1.64a.78.78,0,0,1-.4,0h0a.65.65,0,0,1-.29-.14c-.14-.13-.29-.26-.43-.41a3.19,3.19,0,0,1-.66-1c-1.2-3.76-2.69-7.49-5.71-9.36l-.35-.2c-.28-.16-.57-.31-.86-.44-3.84-1.78-7.74-1.32-11-.83a4.54,4.54,0,0,1-1.22,0,4.06,4.06,0,0,1-.57-.12.55.55,0,0,1-.29-.16.81.81,0,0,1-.21-.33c-.26-.92-1-3.35-1.65-5.45-.53-1.64-.9-3.08-1.07-3.85a3.92,3.92,0,0,1-.11-.88C197,437.11,197.12,437,197.19,436.9Z" transform="translate(-46.74 -391.73)"/><path class="cls-22" d="M197.37,436.91a.83.83,0,0,1,.3-.29,3.82,3.82,0,0,1,.84-.31,31.79,31.79,0,0,1,21.05,3c5.5,2.84,9.61,8,12.63,15.36a3.91,3.91,0,0,1,.28,1.33,4.63,4.63,0,0,1,0,.54.58.58,0,0,1-.15.33.64.64,0,0,1-.32.21c-1,.35-2.57.95-4.13,1.35l-.76.2c-1.79.49-4.15,1.27-5.23,1.63a.74.74,0,0,1-.39,0h0a.62.62,0,0,1-.29-.15c-.13-.13-.28-.27-.41-.42a3.34,3.34,0,0,1-.65-1c-1.24-3.75-2.78-7.38-5.78-9.24l-.35-.2c-.28-.16-.57-.3-.85-.44-3.79-1.76-7.66-1.41-10.93-.93a4.47,4.47,0,0,1-1.21,0c-.2,0-.39-.06-.57-.09a.63.63,0,0,1-.29-.16.75.75,0,0,1-.21-.33c-.27-.93-.95-3.33-1.6-5.39-.51-1.63-.85-3-1-3.83a3.84,3.84,0,0,1-.11-.87C197.17,437.12,197.3,437,197.37,436.91Z" transform="translate(-46.74 -391.73)"/><path class="cls-23" d="M197.55,436.93a.68.68,0,0,1,.3-.28,3.28,3.28,0,0,1,.83-.3,31.33,31.33,0,0,1,20.86,3c5.47,2.82,9.56,7.92,12.57,15.24a4.14,4.14,0,0,1,.3,1.32,4.64,4.64,0,0,1,0,.53.57.57,0,0,1-.14.34.77.77,0,0,1-.31.22c-1,.34-2.56.92-4.12,1.32l-.75.2c-1.78.48-4.11,1.26-5.19,1.61a.65.65,0,0,1-.39,0h0a.56.56,0,0,1-.29-.16,5.57,5.57,0,0,1-.39-.43,3.52,3.52,0,0,1-.63-1c-1.28-3.74-2.88-7.27-5.87-9.11a3.79,3.79,0,0,0-.34-.2c-.28-.16-.56-.31-.85-.44-3.74-1.75-7.57-1.5-10.84-1a5.49,5.49,0,0,1-1.21,0l-.57-.08a.61.61,0,0,1-.29-.14.72.72,0,0,1-.21-.33c-.28-.95-.93-3.32-1.55-5.35-.49-1.61-.81-3-1-3.8a6.58,6.58,0,0,1-.12-.86C197.35,437.14,197.48,437.05,197.55,436.93Z" transform="translate(-46.74 -391.73)"/><path class="cls-24" d="M197.72,437a.73.73,0,0,1,.3-.28,3.41,3.41,0,0,1,.83-.29,31,31,0,0,1,20.67,3.06c5.44,2.81,9.51,7.85,12.51,15.12a4.48,4.48,0,0,1,.32,1.31c0,.19,0,.37,0,.54a.58.58,0,0,1-.13.34.59.59,0,0,1-.31.22c-1,.34-2.54.9-4.09,1.3l-.75.2c-1.78.48-4.07,1.24-5.16,1.6a.74.74,0,0,1-.39,0h0a.61.61,0,0,1-.27-.17,5.46,5.46,0,0,1-.38-.44,3.72,3.72,0,0,1-.62-1c-1.32-3.72-3-7.16-5.94-9l-.34-.2c-.28-.15-.56-.3-.84-.43-3.69-1.75-7.5-1.59-10.77-1.14a6,6,0,0,1-1.2,0c-.2,0-.39,0-.57-.06a.6.6,0,0,1-.29-.13.72.72,0,0,1-.21-.33c-.29-1-.9-3.3-1.5-5.3-.47-1.58-.77-2.95-.95-3.77a6.68,6.68,0,0,1-.12-.85C197.52,437.15,197.65,437.07,197.72,437Z" transform="translate(-46.74 -391.73)"/><path class="cls-25" d="M197.9,437a.71.71,0,0,1,.3-.27,4.4,4.4,0,0,1,.82-.28,30.55,30.55,0,0,1,20.47,3.07c5.43,2.8,9.47,7.79,12.46,15a4.44,4.44,0,0,1,.33,1.3,5.29,5.29,0,0,1,0,.54.61.61,0,0,1-.43.56c-1,.34-2.52.88-4.06,1.28l-.75.19c-1.77.48-4,1.23-5.12,1.59a.65.65,0,0,1-.39,0h0a.48.48,0,0,1-.27-.17,5.46,5.46,0,0,1-.36-.45,4.66,4.66,0,0,1-.61-1c-1.35-3.71-3.06-7.05-6-8.86a3.79,3.79,0,0,0-.34-.2,9.33,9.33,0,0,0-.83-.43,18.56,18.56,0,0,0-10.69-1.25,8.18,8.18,0,0,1-1.2.06l-.56-.05a.59.59,0,0,1-.3-.12.58.58,0,0,1-.21-.32c-.29-1-.88-3.29-1.45-5.26-.45-1.56-.72-2.9-.9-3.74a6.61,6.61,0,0,1-.13-.84C197.7,437.16,197.83,437.08,197.9,437Z" transform="translate(-46.74 -391.73)"/><path class="cls-26" d="M198.08,437a.66.66,0,0,1,.3-.27,4.5,4.5,0,0,1,.81-.26,30.2,30.2,0,0,1,20.28,3.07c5.4,2.79,9.42,7.72,12.4,14.9a5,5,0,0,1,.35,1.29,5,5,0,0,1,.06.54.57.57,0,0,1-.11.34.61.61,0,0,1-.3.22c-1,.34-2.52.86-4.05,1.26l-.73.19c-1.77.47-4,1.21-5.1,1.57a.62.62,0,0,1-.38,0h0a.43.43,0,0,1-.26-.17l-.36-.47a5,5,0,0,1-.58-1c-1.4-3.69-3.16-6.94-6.09-8.74l-.34-.19c-.27-.16-.55-.3-.82-.44a18.69,18.69,0,0,0-10.62-1.35,7.94,7.94,0,0,1-1.18.07c-.2,0-.39,0-.57,0a.51.51,0,0,1-.3-.11.66.66,0,0,1-.22-.32c-.29-1-.84-3.27-1.39-5.21-.43-1.54-.68-2.86-.86-3.71a8.38,8.38,0,0,1-.13-.83C197.87,437.17,198,437.1,198.08,437Z" transform="translate(-46.74 -391.73)"/><path class="cls-27" d="M198.26,437a.7.7,0,0,1,.3-.26,4.8,4.8,0,0,1,.81-.25c6.11-1.35,13.13-.5,20.08,3.09,5.37,2.77,9.37,7.64,12.34,14.78a5.48,5.48,0,0,1,.37,1.28c0,.18.06.36.08.53a.51.51,0,0,1-.1.35.57.57,0,0,1-.3.22c-1,.34-2.5.85-4,1.24l-.73.19c-1.76.47-4,1.19-5.06,1.55a.62.62,0,0,1-.38,0h0a.44.44,0,0,1-.26-.18c-.11-.16-.23-.31-.34-.48a6.11,6.11,0,0,1-.57-1c-1.44-3.68-3.25-6.83-6.16-8.61a3.79,3.79,0,0,0-.34-.2c-.27-.15-.54-.3-.82-.43a18.59,18.59,0,0,0-10.53-1.45,9.57,9.57,0,0,1-1.18.07,5.32,5.32,0,0,1-.57,0,.51.51,0,0,1-.3-.1.63.63,0,0,1-.22-.31c-.3-1-.82-3.26-1.34-5.17-.41-1.51-.63-2.81-.82-3.68-.06-.28-.1-.55-.14-.82S198.19,437.11,198.26,437Z" transform="translate(-46.74 -391.73)"/><path class="cls-28" d="M198.43,437a.56.56,0,0,1,.3-.25,5.44,5.44,0,0,1,.81-.25c6.09-1.33,13-.48,19.89,3.1,5.34,2.76,9.31,7.57,12.28,14.67a5.82,5.82,0,0,1,.39,1.27,5.34,5.34,0,0,1,.09.53.49.49,0,0,1-.08.35.51.51,0,0,1-.29.23c-1,.33-2.49.82-4,1.21l-.73.19c-1.75.46-3.91,1.17-5,1.54a.59.59,0,0,1-.37,0h0a.46.46,0,0,1-.26-.19l-.32-.49a7.39,7.39,0,0,1-.56-1c-1.47-3.65-3.34-6.71-6.24-8.48a3.54,3.54,0,0,0-.33-.19c-.27-.16-.54-.3-.81-.43a18.64,18.64,0,0,0-10.46-1.56c-.39.05-.79.08-1.17.09H201a.57.57,0,0,1-.52-.4c-.3-1-.79-3.25-1.29-5.13-.39-1.49-.59-2.76-.77-3.65-.06-.27-.11-.55-.15-.81S198.37,437.13,198.43,437Z" transform="translate(-46.74 -391.73)"/><path class="cls-29" d="M198.61,437a.53.53,0,0,1,.3-.25,6.73,6.73,0,0,1,.8-.23c6.07-1.33,12.79-.46,19.69,3.1,5.33,2.75,9.27,7.51,12.24,14.56a8.25,8.25,0,0,1,.4,1.25c0,.19.08.36.11.54a.49.49,0,0,1-.07.35.48.48,0,0,1-.29.23c-1,.33-2.47.8-4,1.18l-.73.19c-1.75.46-3.87,1.16-5,1.53a.55.55,0,0,1-.38,0h0a.49.49,0,0,1-.24-.2l-.31-.5a7.93,7.93,0,0,1-.55-1c-1.51-3.64-3.43-6.61-6.31-8.35l-.33-.2c-.26-.15-.53-.29-.8-.43a18.7,18.7,0,0,0-10.39-1.66c-.39.05-.78.08-1.16.1l-.57,0a.45.45,0,0,1-.3-.09.48.48,0,0,1-.22-.3c-.31-1-.76-3.23-1.24-5.08-.37-1.47-.55-2.71-.73-3.62-.06-.27-.11-.54-.15-.8S198.54,437.14,198.61,437Z" transform="translate(-46.74 -391.73)"/><path class="cls-30" d="M198.79,437a.55.55,0,0,1,.3-.24,6.55,6.55,0,0,1,.79-.22c6.05-1.31,12.62-.44,19.5,3.11,5.3,2.74,9.22,7.44,12.18,14.45a9,9,0,0,1,.42,1.24c.05.18.09.36.13.54a.44.44,0,0,1-.06.35.49.49,0,0,1-.28.23c-1,.33-2.46.78-4,1.16l-.72.19c-1.74.46-3.83,1.14-5,1.51a.52.52,0,0,1-.37,0h0a.46.46,0,0,1-.24-.21c-.09-.17-.19-.34-.29-.51a10.16,10.16,0,0,1-.53-1c-1.55-3.62-3.53-6.5-6.39-8.23l-.33-.19c-.26-.15-.53-.29-.8-.43a18.58,18.58,0,0,0-10.3-1.76l-1.16.11-.56,0a.46.46,0,0,1-.31-.08.55.55,0,0,1-.23-.29c-.31-1.05-.73-3.22-1.17-5-.36-1.45-.51-2.67-.7-3.58-.05-.28-.1-.54-.15-.8S198.72,437.16,198.79,437Z" transform="translate(-46.74 -391.73)"/><path class="cls-31" d="M199,437.06a.59.59,0,0,1,.3-.24c.26-.08.52-.15.79-.21,6-1.3,12.45-.42,19.31,3.13,5.27,2.72,9.17,7.36,12.12,14.33a10.58,10.58,0,0,1,.44,1.23l.15.53a.46.46,0,0,1,0,.36.49.49,0,0,1-.28.23c-1,.33-2.44.76-3.93,1.14l-.71.19c-1.74.45-3.79,1.12-4.93,1.49a.52.52,0,0,1-.37,0h0a.49.49,0,0,1-.24-.22l-.27-.52c-.18-.34-.37-.69-.52-1-1.59-3.61-3.62-6.39-6.46-8.11l-.33-.19c-.26-.14-.52-.29-.79-.42A18.53,18.53,0,0,0,203,446.86l-1.14.12-.57.06a.4.4,0,0,1-.31-.07.48.48,0,0,1-.23-.29c-.31-1.06-.7-3.2-1.12-5-.34-1.42-.47-2.62-.66-3.55-.05-.27-.1-.53-.16-.79S198.9,437.17,199,437.06Z" transform="translate(-46.74 -391.73)"/><path class="cls-32" d="M199.14,437.08a.46.46,0,0,1,.3-.23,7.44,7.44,0,0,1,.78-.2c6-1.3,12.27-.4,19.12,3.13,5.24,2.71,9.12,7.29,12.06,14.21.17.4.32.82.46,1.23.06.18.12.35.17.53a.45.45,0,0,1,0,.36.48.48,0,0,1-.28.24c-1,.32-2.42.73-3.9,1.11l-.71.19c-1.73.44-3.75,1.1-4.9,1.48a.5.5,0,0,1-.36,0h0a.46.46,0,0,1-.23-.23c-.09-.17-.18-.35-.26-.53-.18-.35-.35-.69-.51-1-1.64-3.59-3.71-6.28-6.53-8l-.33-.19-.78-.42a18.55,18.55,0,0,0-10.15-2l-1.14.13-.57.08a.5.5,0,0,1-.32-.06.44.44,0,0,1-.22-.28c-.32-1.08-.68-3.19-1.07-4.94-.32-1.41-.43-2.58-.61-3.53-.06-.27-.11-.53-.17-.77S199.08,437.19,199.14,437.08Z" transform="translate(-46.74 -391.73)"/><path class="cls-33" d="M199.32,437.09a.46.46,0,0,1,.3-.22l.78-.19c6-1.28,12.09-.38,18.91,3.14,5.22,2.7,9.08,7.22,12,14.1.17.4.33.81.48,1.22.06.17.13.35.19.53a.45.45,0,0,1,0,.36.46.46,0,0,1-.27.24c-1,.32-2.41.71-3.89,1.09l-.7.18c-1.72.45-3.71,1.09-4.86,1.47a.48.48,0,0,1-.37,0h0a.46.46,0,0,1-.22-.22c-.08-.19-.16-.37-.25-.55-.16-.35-.33-.7-.49-1a17.18,17.18,0,0,0-6.61-7.86l-.32-.18c-.25-.15-.51-.29-.77-.43a18.57,18.57,0,0,0-10.08-2.07c-.38,0-.76.08-1.13.14l-.57.09a.46.46,0,0,1-.54-.33c-.33-1.09-.65-3.17-1-4.89-.3-1.39-.39-2.53-.57-3.5-.05-.26-.11-.52-.17-.76S199.26,437.2,199.32,437.09Z" transform="translate(-46.74 -391.73)"/><path class="cls-34" d="M221.91,458.86a.4.4,0,0,1-.21-.23c-1.81-4.43-4.21-7.42-7.4-9.33-.35-.22-.72-.42-1.09-.61a17.54,17.54,0,0,0-11.69-1.91.51.51,0,0,1-.32,0,.49.49,0,0,1-.23-.28c-.32-1.11-.62-3.16-1-4.85s-.36-3.06-.71-4.22c0-.12.13-.17.2-.28a.46.46,0,0,1,.3-.22c6.23-1.52,12.4-.69,19.49,3,5.62,2.91,9.65,7.9,12.66,15.73a.45.45,0,0,1,0,.36.43.43,0,0,1-.27.24c-1.11.37-2.86.82-4.56,1.25s-3.67,1.07-4.83,1.45a.46.46,0,0,1-.36,0Z" transform="translate(-46.74 -391.73)"/></g><path class="cls-35" d="M223.7,430.24c10.5,4.86,12.2,18.61,13.39,22.68,2.85,9.69,14.26.68,15.19-1.08s-5.65-23.41-21.92-32c-19.25-10.15-37.57-6.94-41.76-4-3.92,2.78-5.42,16.06,4.63,16.8C196.62,432.91,208.93,423.4,223.7,430.24Z" transform="translate(-46.74 -391.73)"/><path class="cls-36" d="M223.73,430.21c10.53,4.88,12.35,18.5,13.56,22.59,2.76,9.42,14.06.64,15-1.12s-5.62-23.17-21.92-31.77c-19.13-10.1-37.4-6.89-41.5-4-3.84,2.73-5.25,15.75,4.54,16.48C196.69,432.69,208.94,423.34,223.73,430.21Z" transform="translate(-46.74 -391.73)"/><path class="cls-37" d="M223.76,430.17c10.57,4.91,12.5,18.41,13.73,22.51,2.68,9.15,13.87.59,14.71-1.16s-5.6-22.94-21.91-31.55c-19-10-37.23-6.83-41.25-4-3.76,2.69-5.08,15.43,4.44,16.17C196.76,432.45,208.94,423.29,223.76,430.17Z" transform="translate(-46.74 -391.73)"/><path class="cls-38" d="M223.78,430.14c10.62,4.94,12.65,18.31,13.9,22.41,2.6,8.88,13.68.55,14.48-1.19s-5.57-22.7-21.91-31.33c-18.91-10-37.06-6.76-41-3.94-3.68,2.65-4.91,15.11,4.35,15.87C196.83,432.22,209,423.24,223.78,430.14Z" transform="translate(-46.74 -391.73)"/><path class="cls-39" d="M223.81,430.1c10.66,5,12.8,18.21,14.07,22.33,2.51,8.61,13.49.5,14.24-1.23s-5.55-22.47-21.9-31.1c-18.8-9.93-36.89-6.71-40.74-3.93-3.61,2.6-4.75,14.79,4.25,15.55C196.89,432,209,423.18,223.81,430.1Z" transform="translate(-46.74 -391.73)"/><path class="cls-40" d="M223.84,430.07c10.7,5,12.95,18.11,14.24,22.24,2.43,8.34,13.3.46,14-1.27s-5.52-22.24-21.89-30.88c-18.69-9.86-36.73-6.65-40.49-3.92-3.53,2.57-4.58,14.48,4.16,15.25C197,431.76,209,423.13,223.84,430.07Z" transform="translate(-46.74 -391.73)"/><path class="cls-41" d="M223.87,430c10.73,5,13.1,18,14.41,22.16,2.34,8.07,13.1.41,13.76-1.31s-5.5-22-21.89-30.65c-18.58-9.81-36.55-6.6-40.23-3.92-3.45,2.53-4.41,14.17,4.06,14.94C197,431.53,209,423.08,223.87,430Z" transform="translate(-46.74 -391.73)"/><path class="cls-42" d="M223.89,430c10.78,5.05,13.25,17.91,14.58,22.07,2.27,7.79,12.92.36,13.53-1.35s-5.47-21.77-21.88-30.43c-18.47-9.75-36.39-6.53-40-3.9-3.37,2.48-4.25,13.84,4,14.63C197.1,431.3,209,423,223.89,430Z" transform="translate(-46.74 -391.73)"/><path class="cls-43" d="M223.92,430c10.82,5.07,13.4,17.81,14.75,22,2.18,7.52,12.73.32,13.29-1.39s-5.45-21.53-21.88-30.21c-18.36-9.69-36.21-6.47-39.72-3.89-3.3,2.44-4.08,13.53,3.87,14.32C197.17,431.07,209,423,223.92,430Z" transform="translate(-46.74 -391.73)"/><path class="cls-44" d="M224,429.93c10.86,5.1,13.55,17.71,14.92,21.9,2.09,7.25,12.53.27,13-1.43s-5.42-21.3-21.87-30c-18.25-9.64-36.05-6.42-39.47-3.89-3.22,2.4-3.91,13.22,3.78,14C197.24,430.84,209,422.92,224,429.93Z" transform="translate(-46.74 -391.73)"/><path class="cls-45" d="M224,429.9c10.89,5.13,13.7,17.61,15.08,21.81,2,7,12.35.22,12.82-1.47s-5.4-21.07-21.86-29.76c-18.14-9.58-35.88-6.36-39.22-3.87-3.14,2.35-3.74,12.9,3.68,13.7C197.31,430.61,209,422.86,224,429.9Z" transform="translate(-46.74 -391.73)"/><path class="cls-46" d="M224,429.86c10.94,5.16,13.85,17.52,15.26,21.73,1.93,6.7,12.15.17,12.58-1.51s-5.37-20.83-21.86-29.54c-18-9.51-35.71-6.29-39-3.86-3.06,2.31-3.58,12.59,3.58,13.39C197.38,430.38,209,422.81,224,429.86Z" transform="translate(-46.74 -391.73)"/><path class="cls-47" d="M224,429.83c11,5.18,14,17.41,15.43,21.64,1.85,6.43,12,.13,12.34-1.55s-5.35-20.6-21.85-29.31c-17.92-9.46-35.54-6.24-38.71-3.86-3,2.27-3.41,12.29,3.49,13.09C197.45,430.15,209,422.76,224,429.83Z" transform="translate(-46.74 -391.73)"/><path class="cls-48" d="M224.06,429.8c11,5.21,14.15,17.31,15.59,21.55,1.77,6.16,11.78.08,12.11-1.6s-5.32-20.35-21.85-29.08c-17.81-9.4-35.37-6.18-38.44-3.84-2.92,2.22-3.25,12,3.38,12.77C197.51,429.92,209,422.7,224.06,429.8Z" transform="translate(-46.74 -391.73)"/><path class="cls-49" d="M224.08,429.76c11.07,5.24,14.31,17.22,15.77,21.47,1.68,5.88,11.58,0,11.87-1.64s-5.3-20.12-21.84-28.85c-17.7-9.35-35.2-6.13-38.19-3.84-2.84,2.18-3.09,11.66,3.29,12.46C197.58,429.69,209,422.65,224.08,429.76Z" transform="translate(-46.74 -391.73)"/><path class="cls-50" d="M224.11,429.73c11.1,5.26,14.45,17.11,15.94,21.38,1.6,5.61,11.39,0,11.63-1.68s-5.27-19.89-21.83-28.63c-17.59-9.29-35-6.06-37.94-3.83s-2.92,11.36,3.19,12.16C197.65,429.46,209.05,422.59,224.11,429.73Z" transform="translate(-46.74 -391.73)"/><path class="cls-51" d="M224.14,429.69c11.14,5.29,14.6,17,16.1,21.29,1.52,5.35,11.2-.05,11.4-1.71s-5.25-19.65-21.83-28.41c-17.48-9.23-34.86-6-37.68-3.81s-2.75,11,3.1,11.84C197.72,429.23,209.06,422.54,224.14,429.69Z" transform="translate(-46.74 -391.73)"/><path class="cls-52" d="M224.17,429.66c11.18,5.32,14.75,16.91,16.27,21.2,1.43,5.07,11-.1,11.16-1.75s-5.22-19.42-21.82-28.18c-17.37-9.17-34.7-5.95-37.43-3.81s-2.58,10.74,3,11.54C197.79,429,209.07,422.49,224.17,429.66Z" transform="translate(-46.74 -391.73)"/><path class="cls-53" d="M224.19,429.63c11.23,5.34,14.91,16.81,16.45,21.11,1.35,4.8,10.82-.14,10.92-1.79s-5.2-19.18-21.82-28c-17.26-9.11-34.53-5.89-37.17-3.8s-2.42,10.43,2.91,11.23C197.86,428.78,209.08,422.43,224.19,429.63Z" transform="translate(-46.74 -391.73)"/><path class="cls-54" d="M224.22,429.59c11.27,5.37,15.05,16.72,16.61,21,1.27,4.53,10.63-.19,10.69-1.83s-5.17-19-21.81-27.73c-17.15-9.06-34.36-5.83-36.92-3.79s-2.25,10.12,2.81,10.91C197.93,428.55,209.08,422.38,224.22,429.59Z" transform="translate(-46.74 -391.73)"/><path class="cls-55" d="M224.25,429.56c11.3,5.4,15.2,16.61,16.78,20.94,1.19,4.26,10.44-.24,10.45-1.87s-5.15-18.72-21.8-27.51c-17-9-34.2-5.77-36.67-3.78s-2.08,9.82,2.72,10.61C198,428.32,209.09,422.33,224.25,429.56Z" transform="translate(-46.74 -391.73)"/><path class="cls-56" d="M224.28,429.52c11.34,5.43,15.35,16.52,16.95,20.86,1.1,4,10.25-.29,10.21-1.91s-5.12-18.48-21.8-27.29c-16.93-8.94-34-5.71-36.41-3.77s-1.92,9.52,2.62,10.3C198.07,428.09,209.1,422.27,224.28,429.52Z" transform="translate(-46.74 -391.73)"/><path class="cls-57" d="M224.3,429.49c11.39,5.45,15.51,16.42,17.12,20.77,1,3.71,10.06-.33,10-1.95s-5.1-18.25-21.79-27.06-33.86-5.66-36.16-3.76-1.75,9.21,2.53,10C198.14,427.87,209.11,422.22,224.3,429.49Z" transform="translate(-46.74 -391.73)"/><path class="cls-58" d="M224.33,429.46c11.43,5.48,15.65,16.31,17.29,20.68.94,3.44,9.87-.38,9.74-2s-5.07-18-21.79-26.84-33.68-5.59-35.9-3.75-1.58,8.92,2.43,9.68C198.2,427.64,209.12,422.17,224.33,429.46Z" transform="translate(-46.74 -391.73)"/><path class="cls-59" d="M224.36,429.42c11.47,5.51,15.8,16.22,17.46,20.6.85,3.17,9.67-.43,9.5-2s-5-17.78-21.78-26.62-33.52-5.53-35.65-3.74-1.42,8.62,2.33,9.38C198.27,427.42,209.12,422.11,224.36,429.42Z" transform="translate(-46.74 -391.73)"/><path class="cls-60" d="M224.39,429.39c11.5,5.53,16,16.11,17.62,20.51.78,2.89,9.49-.47,9.27-2.07s-5-17.55-21.77-26.39c-16.49-8.71-33.35-5.48-35.4-3.73s-1.25,8.32,2.24,9.06C198.34,427.19,209.13,422.06,224.39,429.39Z" transform="translate(-46.74 -391.73)"/><path class="cls-61" d="M224.41,429.35c11.55,5.56,16.11,16,17.8,20.43.69,2.62,9.3-.52,9-2.11s-5-17.31-21.77-26.17c-16.38-8.65-33.18-5.42-35.14-3.72s-1.09,8,2.14,8.75C198.41,427,209.14,422,224.41,429.35Z" transform="translate(-46.74 -391.73)"/><path class="cls-62" d="M224.44,429.32c11.59,5.59,16.25,15.92,18,20.34.6,2.35,9.1-.57,8.79-2.16s-5-17.07-21.76-25.93c-16.27-8.6-33-5.36-34.89-3.72s-.92,7.73,2,8.45C198.48,426.75,209.15,422,224.44,429.32Z" transform="translate(-46.74 -391.73)"/><path class="cls-63" d="M224.47,429.29c11.63,5.61,16.4,15.81,18.13,20.25.53,2.07,8.92-.61,8.56-2.2s-4.95-16.83-21.75-25.71c-16.17-8.54-32.85-5.3-34.64-3.7s-.76,7.44,1.95,8.13C198.54,426.53,209.16,421.9,224.47,429.29Z" transform="translate(-46.74 -391.73)"/><path class="cls-64" d="M224.49,429.25a37.47,37.47,0,0,1,18.31,20.16c.44,1.81,8.72-.65,8.32-2.23s-4.92-16.6-21.75-25.49c-16.05-8.47-32.67-5.24-34.38-3.69s-.59,7.15,1.86,7.83C198.61,426.31,209.17,421.84,224.49,429.25Z" transform="translate(-46.74 -391.73)"/><path class="cls-65" d="M224.52,429.22A37.86,37.86,0,0,1,243,449.29c.36,1.54,8.53-.7,8.08-2.27s-4.9-16.37-21.74-25.26c-15.94-8.42-32.51-5.18-34.13-3.69s-.43,6.87,1.76,7.52C198.68,426.1,209.17,421.79,224.52,429.22Z" transform="translate(-46.74 -391.73)"/><path class="cls-66" d="M224.55,429.18a38.23,38.23,0,0,1,18.64,20c.28,1.27,8.35-.75,7.85-2.31s-4.87-16.13-21.74-25c-15.83-8.36-32.33-5.12-33.86-3.67s-.28,6.58,1.66,7.2C198.74,425.89,209.18,421.74,224.55,429.18Z" transform="translate(-46.74 -391.73)"/><path class="cls-35" d="M234.21,411.53c17.32,9.13,17.79,28.31,22.86,35.24,3.62,5,18.92-1.54,16.73-8.13a67.2,67.2,0,0,0-35.22-38.17c-26.35-12.11-58-4.3-60-2.31s-.65,17.34,4.75,17.89C187.54,416.48,210.65,399.11,234.21,411.53Z" transform="translate(-46.74 -391.73)"/><path class="cls-36" d="M234.22,411.48c17.37,9.15,18.08,28.21,23.07,35.14,3.52,4.88,18.61-1.52,16.5-8-.83-2.57-8.92-26-35.21-38.11S181,396.2,179,398.11s-.66,17,4.65,17.51C187.87,416,210.78,399.14,234.22,411.48Z" transform="translate(-46.74 -391.73)"/><path class="cls-37" d="M234.23,411.44c17.43,9.15,18.38,28.1,23.29,35,3.41,4.8,18.3-1.5,16.26-7.87-.82-2.58-9-25.9-35.21-38.05s-57.22-4.32-59.13-2.48-.67,16.66,4.55,17.12C188.19,415.56,210.9,399.17,234.23,411.44Z" transform="translate(-46.74 -391.73)"/><path class="cls-38" d="M234.24,411.39c17.49,9.17,18.67,28,23.5,34.92,3.3,4.73,18-1.47,16-7.72-.81-2.6-9-25.84-35.2-38s-56.82-4.33-58.68-2.56-.67,16.31,4.45,16.73C188.51,415.1,211,399.2,234.24,411.39Z" transform="translate(-46.74 -391.73)"/><path class="cls-39" d="M234.25,411.34c17.54,9.19,19,27.9,23.72,34.82,3.19,4.65,17.68-1.45,15.8-7.59-.81-2.6-9.06-25.76-35.2-37.94-26.3-12.25-56.43-4.34-58.22-2.64-2,1.87-.69,16,4.34,16.34C188.83,414.64,211.15,399.23,234.25,411.34Z" transform="translate(-46.74 -391.73)"/><path class="cls-40" d="M234.26,411.29c17.6,9.2,19.26,27.8,23.93,34.71,3.09,4.57,17.38-1.42,15.57-7.45-.79-2.61-9.11-25.68-35.2-37.88-26.28-12.28-56-4.35-57.76-2.72-2,1.84-.7,15.61,4.24,15.95C189.16,414.18,211.27,399.26,234.26,411.29Z" transform="translate(-46.74 -391.73)"/><path class="cls-41" d="M234.27,411.25c17.66,9.21,19.56,27.69,24.15,34.6,3,4.49,17.08-1.4,15.33-7.31-.78-2.63-9.15-25.62-35.19-37.82-26.27-12.33-55.63-4.37-57.31-2.81-2,1.82-.71,15.26,4.14,15.56C189.48,413.72,211.39,399.28,234.27,411.25Z" transform="translate(-46.74 -391.73)"/><path class="cls-42" d="M234.28,411.2c17.71,9.23,19.86,27.58,24.36,34.5,2.88,4.41,16.78-1.38,15.1-7.18-.77-2.64-9.19-25.54-35.18-37.76-26.26-12.36-55.24-4.38-56.86-2.9-2,1.8-.72,14.92,4,15.18C189.8,413.26,211.52,399.31,234.28,411.2Z" transform="translate(-46.74 -391.73)"/><path class="cls-43" d="M234.29,411.15c17.77,9.24,20.15,27.48,24.58,34.39,2.77,4.33,16.47-1.35,14.86-7-.75-2.65-9.24-25.46-35.18-37.7-26.24-12.4-54.83-4.39-56.4-3-2,1.78-.72,14.57,3.94,14.79C190.12,412.8,211.64,399.34,234.29,411.15Z" transform="translate(-46.74 -391.73)"/><path class="cls-44" d="M234.3,411.1c17.83,9.26,20.45,27.37,24.8,34.29,2.66,4.25,16.16-1.34,14.62-6.9-.74-2.67-9.28-25.4-35.17-37.65-26.23-12.43-54.44-4.4-55.94-3.06-2,1.76-.74,14.22,3.83,14.4C190.45,412.34,211.76,399.37,234.3,411.1Z" transform="translate(-46.74 -391.73)"/><path class="cls-45" d="M234.31,411.05c17.89,9.27,20.75,27.27,25,34.19,2.56,4.16,15.87-1.32,14.39-6.77-.73-2.68-9.33-25.32-35.16-37.59-26.22-12.47-54.05-4.41-55.49-3.14-2,1.73-.75,13.87,3.73,14C190.77,411.88,211.89,399.4,234.31,411.05Z" transform="translate(-46.74 -391.73)"/><path class="cls-46" d="M234.32,411c17.94,9.28,21.05,27.15,25.23,34.07,2.46,4.08,15.56-1.29,14.15-6.63-.71-2.69-9.37-25.24-35.16-37.53-26.2-12.5-53.65-4.43-55-3.22-2,1.71-.76,13.52,3.63,13.62C191.09,411.42,212,399.43,234.32,411Z" transform="translate(-46.74 -391.73)"/><path class="cls-47" d="M234.33,411c18,9.3,21.35,27,25.44,34,2.36,4,15.27-1.28,13.92-6.49-.7-2.71-9.42-25.18-35.15-37.48-26.19-12.54-53.26-4.44-54.58-3.3-2,1.69-.76,13.17,3.54,13.24C191.42,411,212.14,399.45,234.33,411Z" transform="translate(-46.74 -391.73)"/><path class="cls-48" d="M234.34,410.91C252.4,420.22,256,437.84,260,444.77c2.26,3.92,15-1.25,13.68-6.35-.68-2.72-9.46-25.1-35.14-37.42-26.18-12.57-52.87-4.45-54.13-3.39-2,1.67-.77,13,3.44,12.86C191.74,410.37,212.26,399.48,234.34,410.91Z" transform="translate(-46.74 -391.73)"/><path class="cls-49" d="M234.35,410.86c18.11,9.33,22,26.82,25.87,33.76,2.16,3.83,14.68-1.23,13.45-6.22-.67-2.73-9.5-25-35.14-37.36-26.16-12.61-52.47-4.47-53.67-3.47-2,1.65-.78,12.61,3.34,12.47C192.06,409.9,212.38,399.51,234.35,410.86Z" transform="translate(-46.74 -391.73)"/><path class="cls-50" d="M234.36,410.81c18.17,9.35,22.25,26.71,26.09,33.66,2.06,3.74,14.38-1.22,13.21-6.09-.65-2.74-9.55-24.95-35.13-37.3-26.15-12.64-52.09-4.48-53.21-3.55-2,1.63-.79,12.26,3.23,12.08C192.38,409.43,212.51,399.54,234.36,410.81Z" transform="translate(-46.74 -391.73)"/><path class="cls-51" d="M234.37,410.77c18.23,9.35,22.56,26.59,26.3,33.54,2,3.66,14.09-1.19,13-5.94-.64-2.76-9.59-24.88-35.12-37.25-26.14-12.68-51.7-4.5-52.76-3.63-2,1.61-.8,11.91,3.13,11.69S212.63,399.57,234.37,410.77Z" transform="translate(-46.74 -391.73)"/><path class="cls-52" d="M234.38,410.72c18.28,9.37,22.87,26.48,26.52,33.44,1.87,3.56,13.79-1.18,12.74-5.81-.62-2.77-9.64-24.81-35.12-37.19-26.12-12.71-51.3-4.52-52.3-3.71-2,1.58-.81,11.4,3,11.3S212.75,399.6,234.38,410.72Z" transform="translate(-46.74 -391.73)"/><path class="cls-53" d="M234.39,410.67c18.34,9.38,23.17,26.36,26.73,33.33,1.78,3.48,13.5-1.15,12.51-5.67-.6-2.78-9.68-24.73-35.11-37.13-26.11-12.75-50.92-4.54-51.85-3.79-2,1.56-.82,11,2.93,10.91S212.88,399.62,234.39,410.67Z" transform="translate(-46.74 -391.73)"/><path class="cls-54" d="M234.4,410.62c18.4,9.4,23.48,26.25,27,33.23,1.68,3.39,13.21-1.14,12.27-5.53-.59-2.8-9.72-24.66-35.1-37.08-26.1-12.78-50.53-4.56-51.4-3.87-2,1.54-.82,10.69,2.83,10.52S213,399.65,234.4,410.62Z" transform="translate(-46.74 -391.73)"/><path class="cls-55" d="M234.41,410.57c18.45,9.42,23.8,26.13,27.16,33.13,1.59,3.3,12.92-1.13,12.05-5.4-.58-2.81-9.78-24.59-35.11-37-26.08-12.82-50.14-4.58-50.93-4-2,1.53-.84,10.34,2.72,10.14S213.12,399.68,234.41,410.57Z" transform="translate(-46.74 -391.73)"/><path class="cls-56" d="M234.42,410.53c18.51,9.42,24.11,26,27.38,33,1.49,3.21,12.63-1.1,11.81-5.26-.56-2.82-9.82-24.51-35.1-37-26.07-12.85-49.76-4.6-50.48-4-2,1.51-.85,10,2.62,9.75C194.33,406.78,213.25,399.71,234.42,410.53Z" transform="translate(-46.74 -391.73)"/><path class="cls-57" d="M234.43,410.48c18.57,9.44,24.43,25.88,27.59,32.91,1.41,3.12,12.34-1.09,11.58-5.12-.54-2.84-9.87-24.44-35.09-36.91-26.06-12.89-49.37-4.62-50-4.12-2,1.49-.86,9.63,2.52,9.36C194.65,406.32,213.37,399.74,234.43,410.48Z" transform="translate(-46.74 -391.73)"/><path class="cls-58" d="M234.44,410.43c18.62,9.46,24.75,25.76,27.81,32.8,1.31,3,12.05-1.06,11.34-5-.52-2.85-9.91-24.37-35.08-36.85-26.06-12.92-49-4.64-49.58-4.2-2,1.47-.86,9.27,2.42,9C195,405.85,213.49,399.77,234.44,410.43Z" transform="translate(-46.74 -391.73)"/><path class="cls-59" d="M234.45,410.38c18.68,9.47,25.08,25.64,28,32.7,1.23,2.94,11.77-1.05,11.11-4.85-.5-2.86-10-24.29-35.08-36.79-26-13-48.6-4.66-49.12-4.28-2,1.44-.87,8.91,2.32,8.58C195.3,405.38,213.62,399.79,234.45,410.38Z" transform="translate(-46.74 -391.73)"/><path class="cls-60" d="M234.46,410.34c18.74,9.48,25.4,25.51,28.24,32.59,1.14,2.84,11.48-1,10.87-4.71-.48-2.88-10-24.22-35.07-36.74-26-13-48.22-4.69-48.66-4.36-2,1.42-.89,8.55,2.21,8.19C195.62,404.91,213.74,399.82,234.46,410.34Z" transform="translate(-46.74 -391.73)"/><path class="cls-61" d="M234.47,410.29c18.79,9.5,25.74,25.39,28.45,32.48,1.06,2.76,11.2-1,10.64-4.57-.45-2.89-10-24.15-35.06-36.67-26-13-47.84-4.72-48.21-4.46-2,1.41-.9,8.2,2.12,7.82C195.94,404.44,213.86,399.85,234.47,410.29Z" transform="translate(-46.74 -391.73)"/><path class="cls-62" d="M234.48,410.24a58.3,58.3,0,0,1,28.67,32.38c1,2.66,10.91-1,10.4-4.44-.43-2.9-10.09-24.07-35.06-36.61-26-13.07-47.45-4.75-47.75-4.54-2,1.39-.91,7.83,2,7.43A64.73,64.73,0,0,1,234.48,410.24Z" transform="translate(-46.74 -391.73)"/><path class="cls-63" d="M234.5,410.19a58,58,0,0,1,28.88,32.28c.88,2.57,10.62-1,10.16-4.31-.4-2.92-10.13-24-35.05-36.55-26-13.11-47.07-4.78-47.3-4.62-2,1.37-.91,7.47,1.92,7A65.31,65.31,0,0,1,234.5,410.19Z" transform="translate(-46.74 -391.73)"/><path class="cls-64" d="M234.51,410.14c19,9.54,26.76,25,29.09,32.17.81,2.48,10.34-1,9.93-4.16-.38-2.94-10.18-23.93-35-36.5-26-13.14-46.72-4.83-46.85-4.7-2.18,1-.92,7.11,1.82,6.65C196.91,403,214.23,399.94,234.51,410.14Z" transform="translate(-46.74 -391.73)"/><path class="cls-65" d="M234.52,410.1c19,9.55,27.12,24.87,29.31,32.06.72,2.39,10.06-1,9.69-4s-10.22-23.85-35-36.44c-26-13.18-46.32-4.85-46.39-4.78-2.18.95-.93,6.74,1.72,6.26C197.23,402.54,214.36,400,234.52,410.1Z" transform="translate(-46.74 -391.73)"/><path class="cls-66" d="M234.53,410.05C253.6,419.62,262,434.79,264.05,442c.65,2.3,9.78-.92,9.46-3.89s-10.26-23.77-35-36.38c-25.95-13.21-45.93-4.86-45.93-4.86-2.2.92-1,6.38,1.61,5.87C197.55,402.06,214.48,400,234.53,410.05Z" transform="translate(-46.74 -391.73)"/><path class="cls-67" d="M198.87,475.55a12.34,12.34,0,0,1-6.1-6.68,10.84,10.84,0,0,1,.73-8.83c3-5.65,9.79-7.38,16.12-4.11s8.5,9.62,5.5,15.28S205.1,478.77,198.87,475.55Z" transform="translate(-46.74 -391.73)"/><path class="cls-68" d="M214.84,471.2c-3.12,5.85-10.17,7.35-16.08,4.3s-8.43-9.49-5.32-15.35,10-7.11,15.95-4.06S218,465.35,214.84,471.2Z" transform="translate(-46.74 -391.73)"/><path class="cls-67" d="M222.05,459.16a1.15,1.15,0,0,1-.56-.61c-1.74-4.27-4.07-7.23-7.12-9.06-.34-.2-.69-.4-1-.58a16.47,16.47,0,0,0-11.09-1.6,1.22,1.22,0,0,1-.84-.11,1.19,1.19,0,0,1-.6-.72c-.33-1.14-.69-2.9-1-4.61s-.7-3.46-1-4.59a1.17,1.17,0,0,1,.12-.93,1.23,1.23,0,0,1,.77-.56c6.41-1.57,13.06-.51,20.33,3.24,5.79,3,9.92,8.12,13,16.12a1.18,1.18,0,0,1,0,.94,1.21,1.21,0,0,1-.71.62c-1.14.38-2.91.83-4.61,1.27s-3.47.89-4.6,1.26a1.21,1.21,0,0,1-.95-.08Z" transform="translate(-46.74 -391.73)"/><path class="cls-69" d="M219.81,439.13c-6.74-3.47-13.44-4.91-20.28-3.24a1.13,1.13,0,0,0-.83,1.4c.67,2.27,1.4,6.94,2.07,9.2a1.14,1.14,0,0,0,1.34.78,16.64,16.64,0,0,1,12.2,2.19c3.38,2,5.6,5.31,7.14,9.09a1.15,1.15,0,0,0,1.42.65c2.27-.75,6.94-1.78,9.21-2.53a1.12,1.12,0,0,0,.7-1.46C230.28,448.71,226.54,442.61,219.81,439.13Z" transform="translate(-46.74 -391.73)"/><path class="cls-67" d="M244,452a1.18,1.18,0,0,1-.58-.66A37.81,37.81,0,0,0,225,430.13c-9.36-4.83-18.51-6-28-3.56a1.2,1.2,0,0,1-.87-.09,1.18,1.18,0,0,1-.6-.73l-2.64-9a1.14,1.14,0,0,1,.11-.92,1.22,1.22,0,0,1,.74-.57c12.39-3.25,24.77-1.75,36.79,4.45,11.21,5.79,19.26,15.22,23.93,28a1.14,1.14,0,0,1-.05.92,1.22,1.22,0,0,1-.7.62c-1.13.37-2.78.88-4.39,1.37s-3.25,1-4.38,1.38A1.18,1.18,0,0,1,244,452Z" transform="translate(-46.74 -391.73)"/><path class="cls-70" d="M230.36,419.84c-12.1-6.24-24.5-7.65-36.73-4.44a1.11,1.11,0,0,0-.8,1.39l2.64,9a1.13,1.13,0,0,0,1.38.77c9.44-2.42,18.73-1.25,28.05,3.57s15.11,12.23,18.45,21.25a1.15,1.15,0,0,0,1.43.68c2.25-.74,6.52-2,8.77-2.75a1.13,1.13,0,0,0,.71-1.45C250,436.1,242.45,426.09,230.36,419.84Z" transform="translate(-46.74 -391.73)"/><path class="cls-67" d="M264.86,444.61a1.18,1.18,0,0,1-.58-.66c-5.19-14.42-15-25.45-29.22-32.79-14.92-7.7-29.26-9.56-43.83-5.66a1.22,1.22,0,0,1-.88-.1,1.16,1.16,0,0,1-.6-.72l-2.67-9.05a1.18,1.18,0,0,1,.11-.92,1.22,1.22,0,0,1,.74-.57,68.48,68.48,0,0,1,26.41-1.88,79,79,0,0,1,26.29,8.44c17,8.79,28.79,22.07,35,39.46a1.25,1.25,0,0,1-.06.93,1.16,1.16,0,0,1-.7.6l-9.07,3a1.21,1.21,0,0,1-.95-.07Z" transform="translate(-46.74 -391.73)"/><path class="cls-71" d="M240.49,400.8c-17.44-9-35-11.3-52.64-6.55a1.12,1.12,0,0,0-.8,1.39l2.67,9.05a1.15,1.15,0,0,0,1.38.77c14.78-3.95,29.26-1.89,43.89,5.67s24.15,18.61,29.26,32.83a1.14,1.14,0,0,0,1.43.69l9.07-3a1.11,1.11,0,0,0,.71-1.43C269.4,423.26,257.92,409.81,240.49,400.8Z" transform="translate(-46.74 -391.73)"/><path class="cls-72" d="M46.74,545.08V449.71A5.89,5.89,0,0,1,53,443.52h26.4a5.89,5.89,0,0,1,6.29,6.19v88.43c0,35.92,14.83,34.19,39.73,34.19h36c3.77,0,6.54,2.47,6.54,6.19v22.05a6.16,6.16,0,0,1-6.54,6.44H119.16C72.89,607,46.74,591.9,46.74,545.08Z" transform="translate(-46.74 -391.73)"/><path class="cls-72" d="M184,600.57v-104c0-4,2.51-6.44,6.28-6.44h25.15c3.77,0,6.29,2.47,6.29,6.44v104c0,4-2.52,6.44-6.29,6.44H190.32C186.55,607,184,604.53,184,600.57Z" transform="translate(-46.74 -391.73)"/><path class="cls-72" d="M241.87,600.57v-84c0-8.17,2.52-12.63,8.8-16.35a95.11,95.11,0,0,1,46.27-12.63c35.71,0,64.13,22.79,64.13,62.42v50.54c0,4-2.52,6.44-6.29,6.44H330.39c-4,0-6.54-2.48-6.54-6.44V552c0-18.82-11.32-32-24.14-32-7.8,0-15.59,3-20.87,6.19v74.32c0,4-2.52,6.44-6.29,6.44H248.16C244.39,607,241.87,604.53,241.87,600.57Z" transform="translate(-46.74 -391.73)"/><path class="cls-72" d="M379.67,600.57V439.8a5.9,5.9,0,0,1,6.29-6.19h24.39a5.9,5.9,0,0,1,6.29,6.19V530l37.47-36.66a10.18,10.18,0,0,1,7.54-3.22h28.16c4.53,0,7.05,2.47,7.05,5.69A7.75,7.75,0,0,1,495.1,501l-39.23,37.15c26.4,12.88,40.23,41.62,44.25,61.19.51,3.22-1.25,7.68-6.53,7.68h-24.9c-4.52,0-9.55-2.48-10.81-6.94-4.78-16.35-15.09-31.46-28.92-37.9l-12.32,11.4v27c0,4-2.52,6.44-6.29,6.44H386C382.19,607,379.67,604.53,379.67,600.57Z" transform="translate(-46.74 -391.73)"/><path class="cls-72" d="M508.67,523.78c-1.25-44.34,26.41-80.26,69.91-80.26h53.31a5.89,5.89,0,0,1,6.29,6.19v22.05c0,4-2.52,6.44-6.29,6.44H583.61c-19.86,0-32.69,7.18-35.71,29.72h66.64a5.9,5.9,0,0,1,6.29,6.2v22c0,4-2.52,6.44-6.29,6.44H548.15c3.53,21.8,16.6,29.73,37,29.73h46.77c4,0,6.54,2.47,6.54,6.19v22.05c0,4-2.51,6.44-6.54,6.44H577.83C535.08,607,510.18,574.56,508.67,523.78Z" transform="translate(-46.74 -391.73)"/><path class="cls-72" d="M654,600.57l-.5-150.86a5.89,5.89,0,0,1,6.29-6.19h56.57c59.6,0,90.28,39.14,90.28,79.51s-28.92,84-90.28,84H660.56A7,7,0,0,1,654,600.57Zm62.36-29c35.21,0,51.81-25.26,51.81-48.55,0-22.79-17.86-44.83-51.81-44.83H692.5v93.38Z" transform="translate(-46.74 -391.73)"/><path class="cls-72" d="M821.75,534.43V449.71a5.89,5.89,0,0,1,6.28-6.19h26.41a5.89,5.89,0,0,1,6.28,6.19v86c0,21.55,13.58,39.63,38.48,39.63,23.13,0,36-19.57,36-40.87V449.71c0-3.72,2.51-6.19,6.54-6.19h24.89c3.77,0,6.54,2.47,6.54,6.19v84.72c0,46.07-30.93,75.8-75.19,75.8C852.43,610.23,821.75,580.5,821.75,534.43Z" transform="translate(-46.74 -391.73)"/><path class="cls-72" d="M96.8,378.61" transform="translate(-46.74 -391.73)"/></g></g></svg>